<mxfile host="app.diagrams.net" modified="2023-04-02T17:08:37.983Z" agent="Mozilla/5.0 (Windows NT 10.0; Win64; x64) AppleWebKit/537.36 (KHTML, like Gecko) Chrome/111.0.0.0 Safari/537.36 Edg/111.0.1661.62" etag="lzEYBYydfW0iVF8hs2V6" version="21.1.2" type="device">
  <diagram name="Страница 1" id="ntvmkc2mGW3Ak1YooFP6">
    <mxGraphModel dx="792" dy="1138" grid="1" gridSize="10" guides="1" tooltips="1" connect="1" arrows="1" fold="1" page="1" pageScale="1" pageWidth="827" pageHeight="1169" math="0" shadow="0">
      <root>
        <mxCell id="0" />
        <mxCell id="1" parent="0" />
        <mxCell id="5lr07ByF0oPuGOF4RXZO-3" style="edgeStyle=orthogonalEdgeStyle;rounded=0;orthogonalLoop=1;jettySize=auto;html=1;" edge="1" parent="1" source="5lr07ByF0oPuGOF4RXZO-1" target="5lr07ByF0oPuGOF4RXZO-2">
          <mxGeometry relative="1" as="geometry" />
        </mxCell>
        <mxCell id="5lr07ByF0oPuGOF4RXZO-1" value="Начало&lt;br&gt;saveTrain" style="ellipse;whiteSpace=wrap;html=1;" vertex="1" parent="1">
          <mxGeometry x="354" y="20" width="120" height="80" as="geometry" />
        </mxCell>
        <mxCell id="5lr07ByF0oPuGOF4RXZO-5" style="edgeStyle=orthogonalEdgeStyle;rounded=0;orthogonalLoop=1;jettySize=auto;html=1;entryX=0.5;entryY=0;entryDx=0;entryDy=0;" edge="1" parent="1" source="5lr07ByF0oPuGOF4RXZO-2" target="5lr07ByF0oPuGOF4RXZO-4">
          <mxGeometry relative="1" as="geometry" />
        </mxCell>
        <mxCell id="5lr07ByF0oPuGOF4RXZO-12" value="TRUE" style="edgeStyle=orthogonalEdgeStyle;rounded=0;orthogonalLoop=1;jettySize=auto;html=1;" edge="1" parent="1" source="5lr07ByF0oPuGOF4RXZO-2">
          <mxGeometry relative="1" as="geometry">
            <mxPoint x="414" y="400" as="targetPoint" />
            <Array as="points">
              <mxPoint x="260" y="160" />
              <mxPoint x="260" y="400" />
            </Array>
          </mxGeometry>
        </mxCell>
        <mxCell id="5lr07ByF0oPuGOF4RXZO-2" value="!trainList" style="rhombus;whiteSpace=wrap;html=1;" vertex="1" parent="1">
          <mxGeometry x="374" y="120" width="80" height="80" as="geometry" />
        </mxCell>
        <mxCell id="5lr07ByF0oPuGOF4RXZO-7" style="edgeStyle=orthogonalEdgeStyle;rounded=0;orthogonalLoop=1;jettySize=auto;html=1;entryX=0.5;entryY=0;entryDx=0;entryDy=0;" edge="1" parent="1" source="5lr07ByF0oPuGOF4RXZO-4" target="5lr07ByF0oPuGOF4RXZO-6">
          <mxGeometry relative="1" as="geometry" />
        </mxCell>
        <mxCell id="5lr07ByF0oPuGOF4RXZO-4" value="&lt;div style=&quot;font-size: 14px; line-height: 19px;&quot;&gt;fwrite(trainList, sizeof(struct trainList), 1&lt;font style=&quot;&quot;&gt;, &lt;/font&gt;file&lt;font style=&quot;&quot;&gt;)&lt;/font&gt;&lt;/div&gt;" style="rounded=0;whiteSpace=wrap;html=1;" vertex="1" parent="1">
          <mxGeometry x="272" y="220" width="284" height="60" as="geometry" />
        </mxCell>
        <mxCell id="5lr07ByF0oPuGOF4RXZO-9" style="edgeStyle=orthogonalEdgeStyle;rounded=0;orthogonalLoop=1;jettySize=auto;html=1;" edge="1" parent="1" source="5lr07ByF0oPuGOF4RXZO-6" target="5lr07ByF0oPuGOF4RXZO-8">
          <mxGeometry relative="1" as="geometry" />
        </mxCell>
        <mxCell id="5lr07ByF0oPuGOF4RXZO-6" value="&lt;div style=&quot;font-size: 14px; line-height: 19px;&quot;&gt;&lt;span style=&quot;background-color: rgb(255, 255, 255);&quot;&gt;saveTrain(trainList-&amp;gt;next, file)&lt;/span&gt;&lt;/div&gt;" style="rounded=0;whiteSpace=wrap;html=1;" vertex="1" parent="1">
          <mxGeometry x="317" y="300" width="194" height="60" as="geometry" />
        </mxCell>
        <mxCell id="5lr07ByF0oPuGOF4RXZO-8" value="Конец" style="ellipse;whiteSpace=wrap;html=1;" vertex="1" parent="1">
          <mxGeometry x="354" y="430" width="120" height="80" as="geometry" />
        </mxCell>
      </root>
    </mxGraphModel>
  </diagram>
</mxfile>
